<svg width="128" height="127" viewBox="0 0 128 127" fill="none" xmlns="http://www.w3.org/2000/svg">
<rect width="128" height="127" fill="#ED1C24"/>
<path fill-rule="evenodd" clip-rule="evenodd" d="M108.053 57.8291C104.771 58.1309 103.155 59.7233 98.874 59.2517C96.4737 59.9994 95.8716 62.142 96.1202 64.943C94.0799 64.3901 92.5405 63.4483 89.6945 63.5196C81.4919 80.1624 74.8113 97.9831 67.6647 115.443C64.3133 116.404 60.8902 117.307 58.4853 119C53.7197 115.343 52.5476 108.901 48.3878 104.774C53.3293 88.9129 62.7748 72.7874 65.8279 57.8298C55.655 66.6417 42.7061 79.1322 30.9478 90.5489C25.94 95.4103 23.2276 104.452 10.7529 100.507C8.77616 96.5861 10.0099 90.1771 8 86.2817C20.0954 72.893 33.4162 60.4553 45.634 47.1608C45.2593 45.0804 42.4925 44.8528 41.0443 43.6043C41.2137 41.364 45.9885 42.6932 45.634 40.0477C37.0079 24.8768 59.1049 20.0139 63.0732 8.03997C74.1198 7.57694 86.7814 11.2833 99.7901 11.5965C103.396 19.9903 119.252 23.4477 119.984 31.5126C120.523 37.4272 107.236 48.3238 108.053 57.8291ZM71.3365 17.2863C71.865 18.5363 70.2271 21.465 72.2545 21.5535C72.5896 18.9687 76.1896 18.913 76.8442 16.5743C74.0388 16.0606 73.4984 17.302 71.3365 17.2863ZM85.1057 20.8422C85.1057 21.5535 85.1057 22.2648 85.1057 22.9761C86.8855 26.5427 98.2028 27.9939 102.545 25.1101C102.896 19.2733 91.1088 19.426 85.1057 20.8422Z" fill="white"/>
</svg>
